<?xml version="1.0" standalone="no"?>
<!DOCTYPE svg PUBLIC "-//W3C//DTD SVG 20010904//EN"
 "http://www.w3.org/TR/2001/REC-SVG-20010904/DTD/svg10.dtd">
<svg version="1.0" xmlns="http://www.w3.org/2000/svg"
 width="860.000000pt" height="900.000000pt" viewBox="0 0 860.000000 900.000000"
 preserveAspectRatio="xMidYMid meet">
<metadata>
Created by potrace 1.16, written by Peter Selinger 2001-2019
</metadata>
<g transform="translate(0.000000,900.000000) scale(0.100000,-0.100000)"
fill="#000000" stroke="none">
<path d="M3995 8589 c-823 -69 -1561 -362 -2207 -877 -171 -136 -464 -429
-602 -602 -700 -874 -1002 -1973 -845 -3075 102 -717 385 -1367 847 -1947 136
-171 429 -464 600 -600 509 -406 1088 -679 1707 -806 475 -98 1019 -106 1490
-23 674 119 1285 396 1825 827 173 138 466 431 602 602 467 585 757 1261 852
1982 130 980 -101 1956 -654 2774 -140 207 -290 387 -484 582 -205 204 -381
350 -606 499 -552 368 -1145 582 -1815 655 -136 15 -575 21 -710 9z m694
-1014 c575 -80 1097 -310 1535 -676 851 -713 1239 -1835 1010 -2920 -162 -767
-629 -1450 -1289 -1885 -1000 -658 -2290 -658 -3290 0 -514 339 -922 840
-1143 1401 -133 341 -196 648 -209 1015 -34 1036 478 2020 1352 2596 412 271
873 432 1380 484 129 13 519 4 654 -15z"/>
<path d="M4179 6589 c-59 -14 -139 -48 -183 -78 -22 -16 -392 -384 -821 -817
-705 -713 -784 -796 -817 -859 -47 -91 -62 -163 -55 -261 6 -105 31 -173 92
-258 145 -203 421 -264 647 -144 45 24 133 107 403 379 190 192 348 349 350
349 3 0 5 -420 6 -932 0 -1040 -2 -1004 69 -1122 42 -70 134 -158 201 -191
140 -71 320 -71 462 1 67 34 177 144 211 211 56 112 56 100 56 1071 l0 892 32
0 c28 0 66 -35 347 -313 275 -273 324 -317 381 -345 221 -106 438 -77 595 82
165 165 192 418 66 614 -16 26 -169 184 -338 352 -169 168 -531 526 -803 795
-534 530 -543 537 -681 570 -69 16 -163 18 -220 4z"/>
</g>
</svg>
